<svg xmlns="http://www.w3.org/2000/svg" viewBox="0 0 3177.47 1679.17"><title>ifood-logo</title><path d="M0,964H241.84L376.19,295.58H134.35ZM147.67,235.12H392.33L432.63,0H188Zm188.21,917H577.72L725.51,429.93H906.89l26.87-134.35h-178l6.72-30.23c10.07-57.1,30.23-120.92,120.92-120.92,53.74,0,104.12,3.36,154.5,26.87l26.87-141.07A531.11,531.11,0,0,0,890.09,0C695.28,0,560.93,114.2,510.54,295.58h-84L399.7,429.93h84Z" style="fill:#fff"/><path d="M1101.7,977.42c285.5,0,483.68-258.63,483.68-470.23,0-157.87-144.44-225-285.51-225-312.37,0-483.67,278.79-483.67,470.24,0,157.87,147.79,225,285.5,225m765.82,0c285.5,0,483.67-258.63,483.67-470.23,0-157.87-147.79-225-288.86-225-312.37,0-483.67,278.79-483.67,470.24,0,157.87,151.15,225,288.86,225M2744.18,964h238.47L3177.47,13.44H2935.63l-57.1,282.14L2777.77,285.5c-235.12,0-450.09,302.3-450.09,517.26,0,87.33,57.1,174.66,154.51,174.66,137.71,0,235.12-67.17,275.42-134.35h13.44Zm-745.67,500.47a933.72,933.72,0,0,1-671.77,211.6c-319.09-20.15-547.49-265.34-587.79-524h13.43c73.9,161.23,251.92,312.38,470.24,335.89,221.68,26.87,487-73.9,631.46-211.61l-161.22-124.28h487l-107.48,517.27-70.54-201.53Z" style="fill:#fff"/></svg>
